<svg width="12" height="15" viewBox="0 0 12 15" fill="none" xmlns="http://www.w3.org/2000/svg">
<path d="M10.6667 6.16671H11.3333C11.5101 6.16671 11.6797 6.23695 11.8047 6.36197C11.9298 6.48699 12 6.65656 12 6.83337V13.5C12 13.6769 11.9298 13.8464 11.8047 13.9714C11.6797 14.0965 11.5101 14.1667 11.3333 14.1667H0.666667C0.489856 14.1667 0.320286 14.0965 0.195262 13.9714C0.0702379 13.8464 0 13.6769 0 13.5V6.83337C0 6.65656 0.0702379 6.48699 0.195262 6.36197C0.320286 6.23695 0.489856 6.16671 0.666667 6.16671H1.33333V5.50004C1.33333 4.88721 1.45404 4.28037 1.68856 3.71418C1.92308 3.148 2.26683 2.63355 2.70017 2.20021C3.13351 1.76687 3.64796 1.42312 4.21414 1.1886C4.78033 0.954081 5.38716 0.833374 6 0.833374C6.61284 0.833374 7.21967 0.954081 7.78586 1.1886C8.35204 1.42312 8.86649 1.76687 9.29983 2.20021C9.73317 2.63355 10.0769 3.148 10.3114 3.71418C10.546 4.28037 10.6667 4.88721 10.6667 5.50004V6.16671ZM1.33333 7.50004V12.8334H10.6667V7.50004H1.33333ZM5.33333 8.83337H6.66667V11.5H5.33333V8.83337ZM9.33333 6.16671V5.50004C9.33333 4.61599 8.98214 3.76814 8.35702 3.14302C7.7319 2.5179 6.88406 2.16671 6 2.16671C5.11595 2.16671 4.2681 2.5179 3.64298 3.14302C3.01786 3.76814 2.66667 4.61599 2.66667 5.50004V6.16671H9.33333Z" fill="#0D2961"/>
</svg>
