<svg width="12" height="15" viewBox="0 0 12 15" fill="none" xmlns="http://www.w3.org/2000/svg">
<path d="M11.3334 14.1666H10.0001V12.8333C10.0001 12.3029 9.78937 11.7942 9.4143 11.4191C9.03922 11.044 8.53051 10.8333 8.00008 10.8333H4.00008C3.46965 10.8333 2.96094 11.044 2.58587 11.4191C2.2108 11.7942 2.00008 12.3029 2.00008 12.8333V14.1666H0.666748V12.8333C0.666748 11.9492 1.01794 11.1014 1.64306 10.4763C2.26818 9.85115 3.11603 9.49996 4.00008 9.49996H8.00008C8.88414 9.49996 9.73198 9.85115 10.3571 10.4763C10.9822 11.1014 11.3334 11.9492 11.3334 12.8333V14.1666ZM6.00008 8.16663C5.47479 8.16663 4.95465 8.06316 4.46935 7.86214C3.98405 7.66113 3.54309 7.36649 3.17165 6.99505C2.80022 6.62362 2.50558 6.18266 2.30456 5.69736C2.10354 5.21206 2.00008 4.69191 2.00008 4.16663C2.00008 3.64134 2.10354 3.12119 2.30456 2.63589C2.50558 2.15059 2.80022 1.70963 3.17165 1.3382C3.54309 0.966765 3.98405 0.672127 4.46935 0.471108C4.95465 0.270089 5.47479 0.166626 6.00008 0.166626C7.06095 0.166626 8.07836 0.588053 8.82851 1.3382C9.57866 2.08834 10.0001 3.10576 10.0001 4.16663C10.0001 5.22749 9.57866 6.24491 8.82851 6.99505C8.07836 7.7452 7.06095 8.16663 6.00008 8.16663ZM6.00008 6.83329C6.70733 6.83329 7.3856 6.55234 7.8857 6.05224C8.3858 5.55215 8.66675 4.87387 8.66675 4.16663C8.66675 3.45938 8.3858 2.7811 7.8857 2.28101C7.3856 1.78091 6.70733 1.49996 6.00008 1.49996C5.29284 1.49996 4.61456 1.78091 4.11446 2.28101C3.61437 2.7811 3.33341 3.45938 3.33341 4.16663C3.33341 4.87387 3.61437 5.55215 4.11446 6.05224C4.61456 6.55234 5.29284 6.83329 6.00008 6.83329Z" fill="#0D2961"/>
</svg>
